# xmcd
#
# Track frame offsets: 
#        150
#        16681
#        44152
#        65839
#        85562
#        98520
#        126476
#        147821
#        153118
#        183722
#        195057
#
# Disc length: 2815 seconds
#
# Revision: 0
# Processed by: cddbd v1.5.2PL0 Copyright (c) Steve Scherf et al.
# Submitted via: ExactAudioCopy v0.99pb4
#
DISCID=890afd0b
DTITLE=Ari Borger - Quartel AB4
DYEAR=2007
DGENRE=Blues
TTITLE0=Trip Song
TTITLE1=Na Pressão
TTITLE2=Blind Man
TTITLE3=No Caminho Do Bem
TTITLE4=Nem Vem, Miles
TTITLE5=Senor Blues
TTITLE6=Acid Groove
TTITLE7=B3 Solo
TTITLE8=Blue Monk
TTITLE9=Tributo A Oscar Peterson
TTITLE10=Soul Gl
EXTD=
EXTT0=
EXTT1=
EXTT2=
EXTT3=
EXTT4=
EXTT5=
EXTT6=
EXTT7=
EXTT8=
EXTT9=
EXTT10=
PLAYORDER=
